<?xml version="1.0" encoding="utf-8"?>
<svg viewBox="285 285 330 330" xmlns="http://www.w3.org/2000/svg" xmlns:bx="https://boxy-svg.com">
  <defs>
    <style bx:fonts="Roboto Mono" bx:pinned="true">@import url(https://fonts.googleapis.com/css2?family=Roboto+Mono%3Aital%2Cwght%400%2C100%3B0%2C200%3B0%2C300%3B0%2C400%3B0%2C500%3B0%2C600%3B0%2C700%3B1%2C100%3B1%2C200%3B1%2C300%3B1%2C400%3B1%2C500%3B1%2C600%3B1%2C700&amp;display=swap);</style>
  </defs>
  <rect style="fill: rgb(48, 146, 147);" x="285" y="285" width="330" height="330" rx="20" ry="20"/>
  <circle style="fill: rgb(255, 255, 255);" cx="198.766" cy="95.831" r="21.038" transform="matrix(0.981619, -0.190851, 0.190856, 0.981618, 155.516187, 348.695124)"/>
  <rect x="364.676" y="423.259" width="12.641" height="8.145" style="fill: rgb(255, 255, 255);"/>
  <path style="fill: rgb(255, 255, 255);" d="M 213.121 301.812 H 221.142 A 19.792 19.792 0 0 1 240.934 321.604 V 355.471 A 8.461 8.461 0 0 1 232.473 363.932 H 205.843 A 8.461 8.461 0 0 1 197.382 355.471 V 317.551 A 15.739 15.739 0 0 1 213.121 301.812 Z" transform="matrix(0.994522, 0.104528, -0.104528, 0.994522, 189.125547, 105.019606)" bx:shape="rect 197.382 301.812 43.552 62.12 15.739 19.792 8.461 8.461 1@bda71b0b"/>
  <path style="fill: rgb(255, 255, 255);" transform="matrix(0.875658, -0.482932, 0.47212, 0.881621, 175.201688, 435.037622)" d="M 159.541 132.575 H 165.095 A 3.642 3.642 0 0 1 168.737 136.217 V 163.045 A 6.411 6.411 0 0 1 162.326 169.456 H 159.541 A 3.642 3.642 0 0 1 155.899 165.814 V 136.217 A 3.642 3.642 0 0 1 159.541 132.575 Z" bx:shape="rect 155.899 132.575 12.838 36.881 3.642 3.642 6.411 3.642 1@651bd52c"/>
  <path style="fill: rgb(255, 255, 255);" transform="matrix(0.952622, 0.304158, -0.31592, 0.948866, 284.209743, 322.210933)" d="M 159.545 132.575 H 162.409 A 6.332 6.332 0 0 1 168.741 138.907 V 163.914 A 5.542 5.542 0 0 1 163.199 169.456 H 161.378 A 5.475 5.475 0 0 1 155.903 163.981 V 136.217 A 3.642 3.642 0 0 1 159.545 132.575 Z" bx:shape="rect 155.903 132.575 12.838 36.881 3.642 6.332 5.542 5.475 1@0b0f1c42"/>
  <path style="fill: rgb(255, 255, 255);" transform="matrix(0.992546, 0.12187, -0.12187, 0.992546, 297.702724, 322.115932)" d="M 82.145 150.152 H 87.899 A 3.542 3.542 0 0 1 91.441 153.694 V 200.137 A 5.509 5.509 0 0 1 85.932 205.646 H 84.112 A 5.509 5.509 0 0 1 78.603 200.137 V 153.694 A 3.542 3.542 0 0 1 82.145 150.152 Z" bx:shape="rect 78.603 150.152 12.838 55.494 3.542 3.542 5.509 5.509 1@f1b9c761"/>
  <path style="fill: rgb(255, 255, 255);" transform="matrix(0.422577, 0.906327, -0.898698, 0.43894, 521.444939, 288.675197)" d="M 84.062 150.152 H 85.883 A 5.558 5.558 0 0 1 91.441 155.71 V 200.137 A 5.509 5.509 0 0 1 85.932 205.646 H 80.588 A 1.985 1.985 0 0 1 78.603 203.661 V 155.611 A 5.459 5.459 0 0 1 84.062 150.152 Z" bx:shape="rect 78.603 150.152 12.838 55.494 5.459 5.558 5.509 1.985 1@a9b47862"/>
  <rect style="fill: rgb(255, 255, 255);" transform="matrix(0.422618, 0.906308, -0.906308, 0.422618, 522.421074, -82.167502)" x="414.107" y="215.499" width="16.991" height="84.222" rx="7.29" ry="7.29"/>
  <path style="fill: rgb(255, 255, 255);" transform="matrix(0.927184, -0.374606, 0.374606, 0.927184, -86.02854, 388.306696)" d="M 527.954 183.473 H 546.287 A 20.258 20.258 0 0 1 566.545 203.731 V 274.978 A 29.374 29.374 0 0 1 537.171 304.352 H 527.954 A 20.258 20.258 0 0 1 507.696 284.094 V 203.731 A 20.258 20.258 0 0 1 527.954 183.473 Z" bx:shape="rect 507.696 183.473 58.849 120.879 20.258 20.258 29.374 20.258 1@d5674bc9"/>
  <circle style="fill: rgb(255, 255, 255);" cx="348.702" cy="193.812" r="26.883" transform="matrix(0.99863, 0.052336, -0.052336, 0.99863, 122.528128, 119.729849)"/>
  <rect x="527.111" y="194.594" width="16.365" height="41.301" style="fill: rgb(255, 255, 255);" transform="matrix(0.927184, -0.374606, 0.374606, 0.927184, -102.961676, 355.217341)"/>
  <path style="fill: rgb(255, 255, 255);" transform="matrix(0.992546, 0.12187, -0.12187, 0.992546, -68.379455, 65.097442)" d="M 612.061 298.995 H 631.176 V 389.498 A 8.495 8.495 0 0 1 622.681 397.993 H 620.556 A 8.495 8.495 0 0 1 612.061 389.498 V 298.995 Z" bx:shape="rect 612.061 298.995 19.115 98.998 0 0 8.495 8.495 1@7f720963"/>
  <rect style="fill: rgb(255, 255, 255);" x="492.017" y="517.484" width="63.715" height="19.115" rx="8.495" ry="8.495"/>
  <path style="fill: rgb(255, 255, 255);" d="M 281.737 295.258 H 289.758 A 19.792 19.792 0 0 1 309.55 315.05 V 348.917 A 8.461 8.461 0 0 1 301.089 357.378 H 274.459 A 8.461 8.461 0 0 1 265.998 348.917 V 310.997 A 15.739 15.739 0 0 1 281.737 295.258 Z" transform="matrix(0.994522, -0.104529, 0.104529, 0.994522, 54.757995, 166.467786)" bx:shape="rect 265.998 295.258 43.552 62.12 15.739 19.792 8.461 8.461 1@51b06b0d"/>
  <rect x="479.319" y="518.423" width="0.739" height="0.739" style="fill: rgb(255, 255, 255);"/>
  <path style="fill: rgb(255, 255, 255);" transform="matrix(0.965926, -0.258819, 0.258819, 0.965926, -83.520163, 319.070918)" d="M 527.954 183.473 H 546.287 A 20.258 20.258 0 0 1 566.545 203.731 V 274.978 A 29.374 29.374 0 0 1 537.171 304.352 H 527.954 A 20.258 20.258 0 0 1 507.696 284.094 V 203.731 A 20.258 20.258 0 0 1 527.954 183.473 Z" bx:shape="rect 507.696 183.473 58.849 120.879 20.258 20.258 29.374 20.258 1@d5674bc9"/>
  <path d="M 477.331 310.141 C 478.925 303.765 484.488 297.19 497.276 299.096 C 505.131 300.267 510.634 316.183 511.892 321.608 C 513.9 330.273 517.393 336.56 521.414 339.78 C 526.752 344.055 526.2 340.089 527.244 342.147 C 529.938 347.455 517.732 346.669 515.29 345.447 C 496.568 336.087 502.778 315.281 479.259 315.281" style="stroke: rgba(0, 0, 0, 0); fill: rgb(255, 255, 255);"/>
  <text style="fill: rgb(255, 255, 255); font-family: &quot;Roboto Mono&quot;; font-size: 44px; paint-order: fill; stroke: rgb(255, 255, 255); stroke-dashoffset: -2px; stroke-linecap: round; stroke-linejoin: round; stroke-width: 2px; white-space: pre;" x="317.996" y="590.794">FIRST STEP</text>
  <path d="M 461.305 424.329 C 467.884 419.395 475.759 416.832 478.022 412.626 C 481.483 406.193 489.465 381.196 489.465 381.196" style="fill: none; stroke: rgb(48, 145, 147); stroke-width: 2px;"/>
  <path d="M 450.751 405.278 C 456.407 401.037 464.796 403.173 466.742 399.558 C 469.717 394.027 470.801 383.585 470.801 383.585" style="fill: none; stroke: rgb(48, 146, 147);"/>
  <rect x="318.763" y="547.23" width="262.474" height="0.709" style="stroke-miterlimit: 8; fill: rgb(255, 255, 255);"/>
</svg>